<svg xmlns="http://www.w3.org/2000/svg" version="1.1" xmlns:xlink="http://www.w3.org/1999/xlink" width="200" height="200"><svg xmlns="http://www.w3.org/2000/svg" version="1.1" xmlns:xlink="http://www.w3.org/1999/xlink" viewBox="0 0 200 200"><rect width="200" height="200" fill="url('#gradient')"></rect><defs><linearGradient id="SvgjsLinearGradient1001" gradientTransform="rotate(45 0.5 0.5)"><stop offset="0%" stop-color="#6c815b"></stop><stop offset="100%" stop-color="#a7c4ae"></stop></linearGradient></defs><g><g fill="#4b2e32" transform="matrix(6.183348581884721,0,0,6.183348581884721,26.88073027914855,133.63686723543327)" stroke="#746a57" stroke-width="0.2"><path d="M2.97-3.19L2.97-3.19Q3.75-3.19 4.27-2.73Q4.79-2.27 4.79-1.54Q4.79-0.82 4.27-0.36Q3.75 0.11 2.97 0.11L2.97 0.11Q2.18 0.11 1.67-0.36Q1.15-0.83 1.15-1.54Q1.15-2.26 1.67-2.72Q2.18-3.19 2.97-3.19ZM2.97-10.99L2.97-10.99Q3.75-10.99 4.27-10.52Q4.79-10.06 4.79-9.34Q4.79-8.61 4.27-8.15Q3.75-7.69 2.97-7.69L2.97-7.69Q2.18-7.69 1.67-8.15Q1.15-8.62 1.15-9.34Q1.15-10.05 1.67-10.52Q2.18-10.99 2.97-10.99ZM16.30-9.59L16.30-7.05L7.26-7.05L7.26-9.59L16.30-9.59ZM16.30-5.30L16.30-2.76L7.26-2.76L7.26-5.30L16.30-5.30ZM20.68-3.19L20.68-3.19Q21.46-3.19 21.98-2.73Q22.50-2.27 22.50-1.54Q22.50-0.82 21.98-0.36Q21.46 0.11 20.68 0.11L20.68 0.11Q19.89 0.11 19.38-0.36Q18.87-0.83 18.87-1.54Q18.87-2.26 19.38-2.72Q19.89-3.19 20.68-3.19ZM20.68-10.99L20.68-10.99Q21.46-10.99 21.98-10.52Q22.50-10.06 22.50-9.34Q22.50-8.61 21.98-8.15Q21.46-7.69 20.68-7.69L20.68-7.69Q19.89-7.69 19.38-8.15Q18.87-8.62 18.87-9.34Q18.87-10.05 19.38-10.52Q19.89-10.99 20.68-10.99Z"></path></g></g></svg><style>@media (prefers-color-scheme: light) { :root { filter: none; } }
@media (prefers-color-scheme: dark) { :root { filter: none; } }
</style></svg>